<mxfile host="Electron" modified="2024-02-11T14:34:54.454Z" agent="Mozilla/5.0 (X11; Linux x86_64) AppleWebKit/537.36 (KHTML, like Gecko) draw.io/23.0.2 Chrome/120.0.6099.109 Electron/28.1.0 Safari/537.36" etag="bdFd_NnWSgkOuLnBdpQV" version="23.0.2" type="device">
  <diagram name="Page-1" id="gCLiGtrC-dG6p1pqQanA">
    <mxGraphModel dx="1707" dy="1641" grid="1" gridSize="10" guides="1" tooltips="1" connect="1" arrows="1" fold="1" page="1" pageScale="1" pageWidth="827" pageHeight="1169" math="0" shadow="0">
      <root>
        <mxCell id="0" />
        <mxCell id="1" parent="0" />
        <mxCell id="qT0dpiHwQ6VjPCAu0W2Q-1" value="&lt;font style=&quot;font-size: 20px;&quot;&gt;Program&lt;/font&gt;" style="rounded=1;arcSize=10;whiteSpace=wrap;html=1;align=center;" parent="1" vertex="1">
          <mxGeometry x="80" y="-590" width="170" height="70" as="geometry" />
        </mxCell>
        <mxCell id="qT0dpiHwQ6VjPCAu0W2Q-2" value="&lt;font style=&quot;font-size: 20px;&quot;&gt;Track&lt;/font&gt;" style="rounded=1;arcSize=10;whiteSpace=wrap;html=1;align=center;" parent="1" vertex="1">
          <mxGeometry x="-150" y="-390" width="170" height="70" as="geometry" />
        </mxCell>
        <mxCell id="qT0dpiHwQ6VjPCAu0W2Q-16" style="rounded=0;orthogonalLoop=1;jettySize=auto;html=1;entryX=0;entryY=0.5;entryDx=0;entryDy=0;endArrow=none;endFill=0;" parent="1" source="qT0dpiHwQ6VjPCAu0W2Q-15" target="qT0dpiHwQ6VjPCAu0W2Q-2" edge="1">
          <mxGeometry relative="1" as="geometry" />
        </mxCell>
        <mxCell id="qT0dpiHwQ6VjPCAu0W2Q-15" value="trackID" style="ellipse;whiteSpace=wrap;html=1;align=center;fontStyle=4;" parent="1" vertex="1">
          <mxGeometry x="-280" y="-430" width="100" height="40" as="geometry" />
        </mxCell>
        <mxCell id="qT0dpiHwQ6VjPCAu0W2Q-18" value="" style="rounded=0;orthogonalLoop=1;jettySize=auto;html=1;endArrow=none;endFill=0;" parent="1" source="qT0dpiHwQ6VjPCAu0W2Q-17" target="qT0dpiHwQ6VjPCAu0W2Q-2" edge="1">
          <mxGeometry relative="1" as="geometry">
            <Array as="points">
              <mxPoint x="-160" y="-360" />
            </Array>
          </mxGeometry>
        </mxCell>
        <mxCell id="qT0dpiHwQ6VjPCAu0W2Q-17" value="trackName" style="ellipse;whiteSpace=wrap;html=1;align=center;fontStyle=4;" parent="1" vertex="1">
          <mxGeometry x="-370" y="-400" width="100" height="40" as="geometry" />
        </mxCell>
        <mxCell id="qT0dpiHwQ6VjPCAu0W2Q-21" style="rounded=0;orthogonalLoop=1;jettySize=auto;html=1;entryX=0;entryY=0.5;entryDx=0;entryDy=0;endArrow=none;endFill=0;" parent="1" source="qT0dpiHwQ6VjPCAu0W2Q-20" target="qT0dpiHwQ6VjPCAu0W2Q-2" edge="1">
          <mxGeometry relative="1" as="geometry" />
        </mxCell>
        <mxCell id="qT0dpiHwQ6VjPCAu0W2Q-20" value="trackDescription" style="ellipse;whiteSpace=wrap;html=1;align=center;" parent="1" vertex="1">
          <mxGeometry x="-360" y="-350" width="100" height="40" as="geometry" />
        </mxCell>
        <mxCell id="qT0dpiHwQ6VjPCAu0W2Q-25" style="edgeStyle=orthogonalEdgeStyle;rounded=0;orthogonalLoop=1;jettySize=auto;html=1;entryX=0;entryY=0.25;entryDx=0;entryDy=0;endArrow=ERoneToMany;endFill=0;" parent="1" source="qT0dpiHwQ6VjPCAu0W2Q-24" target="qT0dpiHwQ6VjPCAu0W2Q-1" edge="1">
          <mxGeometry relative="1" as="geometry">
            <Array as="points">
              <mxPoint x="-65" y="-572" />
              <mxPoint x="40" y="-572" />
            </Array>
          </mxGeometry>
        </mxCell>
        <mxCell id="qT0dpiHwQ6VjPCAu0W2Q-27" style="edgeStyle=orthogonalEdgeStyle;rounded=0;orthogonalLoop=1;jettySize=auto;html=1;entryX=0.5;entryY=0;entryDx=0;entryDy=0;endArrow=ERmandOne;endFill=0;" parent="1" source="qT0dpiHwQ6VjPCAu0W2Q-24" target="qT0dpiHwQ6VjPCAu0W2Q-2" edge="1">
          <mxGeometry relative="1" as="geometry">
            <mxPoint x="-60" y="-400" as="targetPoint" />
          </mxGeometry>
        </mxCell>
        <mxCell id="qT0dpiHwQ6VjPCAu0W2Q-24" value="Contain" style="shape=rhombus;perimeter=rhombusPerimeter;whiteSpace=wrap;html=1;align=center;" parent="1" vertex="1">
          <mxGeometry x="-125" y="-550" width="120" height="60" as="geometry" />
        </mxCell>
        <mxCell id="jqrT2KOwgC5lnNY_3PT0-52" style="edgeStyle=orthogonalEdgeStyle;rounded=0;orthogonalLoop=1;jettySize=auto;html=1;entryX=0;entryY=0.5;entryDx=0;entryDy=0;endArrow=none;endFill=0;startArrow=ERmandOne;startFill=0;" parent="1" source="qT0dpiHwQ6VjPCAu0W2Q-28" target="jqrT2KOwgC5lnNY_3PT0-45" edge="1">
          <mxGeometry relative="1" as="geometry">
            <Array as="points">
              <mxPoint x="620" y="-330" />
              <mxPoint x="620" y="-220" />
              <mxPoint x="860" y="-220" />
            </Array>
          </mxGeometry>
        </mxCell>
        <mxCell id="qT0dpiHwQ6VjPCAu0W2Q-28" value="&lt;font style=&quot;font-size: 20px;&quot;&gt;Intake&lt;/font&gt;" style="rounded=1;arcSize=10;whiteSpace=wrap;html=1;align=center;" parent="1" vertex="1">
          <mxGeometry x="280" y="-380" width="250" height="70" as="geometry" />
        </mxCell>
        <mxCell id="qT0dpiHwQ6VjPCAu0W2Q-30" style="rounded=0;orthogonalLoop=1;jettySize=auto;html=1;entryX=0;entryY=0.5;entryDx=0;entryDy=0;endArrow=none;endFill=0;" parent="1" source="qT0dpiHwQ6VjPCAu0W2Q-29" target="qT0dpiHwQ6VjPCAu0W2Q-2" edge="1">
          <mxGeometry relative="1" as="geometry" />
        </mxCell>
        <mxCell id="qT0dpiHwQ6VjPCAu0W2Q-29" value="businessField" style="ellipse;whiteSpace=wrap;html=1;align=center;" parent="1" vertex="1">
          <mxGeometry x="-340" y="-310" width="100" height="40" as="geometry" />
        </mxCell>
        <mxCell id="qT0dpiHwQ6VjPCAu0W2Q-31" value="programID" style="ellipse;whiteSpace=wrap;html=1;align=center;fontStyle=4;" parent="1" vertex="1">
          <mxGeometry x="-20" y="-720" width="100" height="40" as="geometry" />
        </mxCell>
        <mxCell id="qT0dpiHwQ6VjPCAu0W2Q-32" style="rounded=0;orthogonalLoop=1;jettySize=auto;html=1;entryX=0.365;entryY=0;entryDx=0;entryDy=0;entryPerimeter=0;endArrow=none;endFill=0;" parent="1" source="qT0dpiHwQ6VjPCAu0W2Q-31" target="qT0dpiHwQ6VjPCAu0W2Q-1" edge="1">
          <mxGeometry relative="1" as="geometry" />
        </mxCell>
        <mxCell id="qT0dpiHwQ6VjPCAu0W2Q-33" value="programName" style="ellipse;whiteSpace=wrap;html=1;align=center;fontStyle=4;" parent="1" vertex="1">
          <mxGeometry x="70" y="-690" width="100" height="40" as="geometry" />
        </mxCell>
        <mxCell id="qT0dpiHwQ6VjPCAu0W2Q-34" style="rounded=0;orthogonalLoop=1;jettySize=auto;html=1;entryX=0.435;entryY=0;entryDx=0;entryDy=0;entryPerimeter=0;endArrow=none;endFill=0;" parent="1" source="qT0dpiHwQ6VjPCAu0W2Q-33" target="qT0dpiHwQ6VjPCAu0W2Q-1" edge="1">
          <mxGeometry relative="1" as="geometry" />
        </mxCell>
        <mxCell id="qT0dpiHwQ6VjPCAu0W2Q-39" value="" style="rounded=0;orthogonalLoop=1;jettySize=auto;html=1;endArrow=none;endFill=0;" parent="1" source="qT0dpiHwQ6VjPCAu0W2Q-35" target="qT0dpiHwQ6VjPCAu0W2Q-1" edge="1">
          <mxGeometry relative="1" as="geometry" />
        </mxCell>
        <mxCell id="qT0dpiHwQ6VjPCAu0W2Q-35" value="programDescription" style="ellipse;whiteSpace=wrap;html=1;align=center;" parent="1" vertex="1">
          <mxGeometry x="110" y="-730" width="130" height="40" as="geometry" />
        </mxCell>
        <mxCell id="qT0dpiHwQ6VjPCAu0W2Q-38" style="rounded=0;orthogonalLoop=1;jettySize=auto;html=1;endArrow=none;endFill=0;entryX=0.547;entryY=-0.014;entryDx=0;entryDy=0;entryPerimeter=0;" parent="1" source="qT0dpiHwQ6VjPCAu0W2Q-37" target="qT0dpiHwQ6VjPCAu0W2Q-1" edge="1">
          <mxGeometry relative="1" as="geometry">
            <mxPoint x="210" y="-600" as="targetPoint" />
          </mxGeometry>
        </mxCell>
        <mxCell id="qT0dpiHwQ6VjPCAu0W2Q-37" value="jobProfiles" style="ellipse;shape=doubleEllipse;margin=3;whiteSpace=wrap;html=1;align=center;" parent="1" vertex="1">
          <mxGeometry x="250" y="-650" width="100" height="40" as="geometry" />
        </mxCell>
        <mxCell id="qT0dpiHwQ6VjPCAu0W2Q-42" value="" style="edgeStyle=orthogonalEdgeStyle;rounded=0;orthogonalLoop=1;jettySize=auto;html=1;endArrow=ERzeroToMany;endFill=0;" parent="1" source="qT0dpiHwQ6VjPCAu0W2Q-41" target="qT0dpiHwQ6VjPCAu0W2Q-28" edge="1">
          <mxGeometry relative="1" as="geometry" />
        </mxCell>
        <mxCell id="qT0dpiHwQ6VjPCAu0W2Q-41" value="Has" style="shape=rhombus;perimeter=rhombusPerimeter;whiteSpace=wrap;html=1;align=center;" parent="1" vertex="1">
          <mxGeometry x="345" y="-520" width="120" height="60" as="geometry" />
        </mxCell>
        <mxCell id="qT0dpiHwQ6VjPCAu0W2Q-43" style="edgeStyle=orthogonalEdgeStyle;rounded=0;orthogonalLoop=1;jettySize=auto;html=1;entryX=0.994;entryY=0.357;entryDx=0;entryDy=0;entryPerimeter=0;endArrow=ERmandOne;endFill=0;" parent="1" source="qT0dpiHwQ6VjPCAu0W2Q-41" target="qT0dpiHwQ6VjPCAu0W2Q-1" edge="1">
          <mxGeometry relative="1" as="geometry">
            <Array as="points">
              <mxPoint x="405" y="-565" />
            </Array>
          </mxGeometry>
        </mxCell>
        <mxCell id="qT0dpiHwQ6VjPCAu0W2Q-46" style="rounded=0;orthogonalLoop=1;jettySize=auto;html=1;entryX=0.25;entryY=0;entryDx=0;entryDy=0;endArrow=none;endFill=0;" parent="1" source="qT0dpiHwQ6VjPCAu0W2Q-44" target="qT0dpiHwQ6VjPCAu0W2Q-28" edge="1">
          <mxGeometry relative="1" as="geometry" />
        </mxCell>
        <mxCell id="qT0dpiHwQ6VjPCAu0W2Q-44" value="intakeID" style="ellipse;whiteSpace=wrap;html=1;align=center;fontStyle=4;" parent="1" vertex="1">
          <mxGeometry x="210" y="-490" width="100" height="40" as="geometry" />
        </mxCell>
        <mxCell id="qT0dpiHwQ6VjPCAu0W2Q-48" style="rounded=0;orthogonalLoop=1;jettySize=auto;html=1;entryX=0;entryY=0.5;entryDx=0;entryDy=0;endArrow=none;endFill=0;" parent="1" source="qT0dpiHwQ6VjPCAu0W2Q-47" target="qT0dpiHwQ6VjPCAu0W2Q-2" edge="1">
          <mxGeometry relative="1" as="geometry" />
        </mxCell>
        <mxCell id="qT0dpiHwQ6VjPCAu0W2Q-47" value="establishmentDate" style="ellipse;whiteSpace=wrap;html=1;align=center;" parent="1" vertex="1">
          <mxGeometry x="-330" y="-270" width="110" height="40" as="geometry" />
        </mxCell>
        <mxCell id="qT0dpiHwQ6VjPCAu0W2Q-52" style="rounded=0;orthogonalLoop=1;jettySize=auto;html=1;entryX=0.168;entryY=0.014;entryDx=0;entryDy=0;endArrow=none;endFill=0;entryPerimeter=0;" parent="1" source="qT0dpiHwQ6VjPCAu0W2Q-51" target="qT0dpiHwQ6VjPCAu0W2Q-28" edge="1">
          <mxGeometry relative="1" as="geometry" />
        </mxCell>
        <mxCell id="qT0dpiHwQ6VjPCAu0W2Q-51" value="startDate" style="ellipse;whiteSpace=wrap;html=1;align=center;" parent="1" vertex="1">
          <mxGeometry x="180" y="-450" width="100" height="40" as="geometry" />
        </mxCell>
        <mxCell id="jqrT2KOwgC5lnNY_3PT0-99" style="edgeStyle=orthogonalEdgeStyle;rounded=0;orthogonalLoop=1;jettySize=auto;html=1;exitX=0.5;exitY=1;exitDx=0;exitDy=0;endArrow=ERoneToMany;endFill=0;" parent="1" source="jqrT2KOwgC5lnNY_3PT0-100" edge="1">
          <mxGeometry relative="1" as="geometry">
            <mxPoint x="1270" y="-429.98" as="sourcePoint" />
            <mxPoint x="1420" y="-350" as="targetPoint" />
            <Array as="points">
              <mxPoint x="1230" y="-400" />
              <mxPoint x="1420" y="-400" />
            </Array>
          </mxGeometry>
        </mxCell>
        <mxCell id="cUoe-X10xUlnaE-VZoVE-8" style="edgeStyle=orthogonalEdgeStyle;rounded=0;orthogonalLoop=1;jettySize=auto;html=1;entryX=0.5;entryY=0;entryDx=0;entryDy=0;endArrow=none;endFill=0;startArrow=ERoneToMany;startFill=0;" parent="1" source="qT0dpiHwQ6VjPCAu0W2Q-54" target="cUoe-X10xUlnaE-VZoVE-7" edge="1">
          <mxGeometry relative="1" as="geometry" />
        </mxCell>
        <mxCell id="qT0dpiHwQ6VjPCAu0W2Q-54" value="&lt;font style=&quot;font-size: 20px;&quot;&gt;Student&lt;/font&gt;" style="rounded=1;arcSize=10;whiteSpace=wrap;html=1;align=center;" parent="1" vertex="1">
          <mxGeometry x="770" y="-580" width="360" height="70" as="geometry" />
        </mxCell>
        <mxCell id="qT0dpiHwQ6VjPCAu0W2Q-61" style="edgeStyle=orthogonalEdgeStyle;rounded=0;orthogonalLoop=1;jettySize=auto;html=1;entryX=1;entryY=0.5;entryDx=0;entryDy=0;endArrow=ERmandOne;endFill=0;" parent="1" source="qT0dpiHwQ6VjPCAu0W2Q-57" target="qT0dpiHwQ6VjPCAu0W2Q-28" edge="1">
          <mxGeometry relative="1" as="geometry">
            <Array as="points">
              <mxPoint x="530" y="-345" />
            </Array>
          </mxGeometry>
        </mxCell>
        <mxCell id="qT0dpiHwQ6VjPCAu0W2Q-57" value="Join" style="shape=rhombus;perimeter=rhombusPerimeter;whiteSpace=wrap;html=1;align=center;" parent="1" vertex="1">
          <mxGeometry x="540" y="-490" width="120" height="60" as="geometry" />
        </mxCell>
        <mxCell id="qT0dpiHwQ6VjPCAu0W2Q-60" style="edgeStyle=orthogonalEdgeStyle;rounded=0;orthogonalLoop=1;jettySize=auto;html=1;entryX=-0.006;entryY=0.386;entryDx=0;entryDy=0;entryPerimeter=0;endArrow=ERoneToMany;endFill=0;" parent="1" source="qT0dpiHwQ6VjPCAu0W2Q-57" target="qT0dpiHwQ6VjPCAu0W2Q-54" edge="1">
          <mxGeometry relative="1" as="geometry">
            <Array as="points">
              <mxPoint x="530" y="-553" />
            </Array>
          </mxGeometry>
        </mxCell>
        <mxCell id="qT0dpiHwQ6VjPCAu0W2Q-76" style="rounded=0;orthogonalLoop=1;jettySize=auto;html=1;endArrow=none;endFill=0;" parent="1" source="qT0dpiHwQ6VjPCAu0W2Q-63" target="qT0dpiHwQ6VjPCAu0W2Q-54" edge="1">
          <mxGeometry relative="1" as="geometry" />
        </mxCell>
        <mxCell id="qT0dpiHwQ6VjPCAu0W2Q-63" value="studentEmail" style="ellipse;whiteSpace=wrap;html=1;align=center;fontStyle=4;rotation=-15;" parent="1" vertex="1">
          <mxGeometry x="830" y="-720" width="100" height="40" as="geometry" />
        </mxCell>
        <mxCell id="qT0dpiHwQ6VjPCAu0W2Q-77" style="rounded=0;orthogonalLoop=1;jettySize=auto;html=1;endArrow=none;endFill=0;" parent="1" source="qT0dpiHwQ6VjPCAu0W2Q-65" target="qT0dpiHwQ6VjPCAu0W2Q-54" edge="1">
          <mxGeometry relative="1" as="geometry" />
        </mxCell>
        <mxCell id="qT0dpiHwQ6VjPCAu0W2Q-65" value="dateOfBirth" style="ellipse;whiteSpace=wrap;html=1;align=center;rotation=0;" parent="1" vertex="1">
          <mxGeometry x="880" y="-790" width="100" height="40" as="geometry" />
        </mxCell>
        <mxCell id="qT0dpiHwQ6VjPCAu0W2Q-68" value="graduatedFrom" style="ellipse;whiteSpace=wrap;html=1;align=center;rotation=7;" parent="1" vertex="1">
          <mxGeometry x="1080" y="-710" width="100" height="40" as="geometry" />
        </mxCell>
        <mxCell id="qT0dpiHwQ6VjPCAu0W2Q-78" style="rounded=0;orthogonalLoop=1;jettySize=auto;html=1;endArrow=none;endFill=0;" parent="1" source="qT0dpiHwQ6VjPCAu0W2Q-69" target="qT0dpiHwQ6VjPCAu0W2Q-54" edge="1">
          <mxGeometry relative="1" as="geometry">
            <Array as="points">
              <mxPoint x="930" y="-580" />
            </Array>
          </mxGeometry>
        </mxCell>
        <mxCell id="qT0dpiHwQ6VjPCAu0W2Q-69" value="phoneNumber" style="ellipse;whiteSpace=wrap;html=1;align=center;rotation=0;" parent="1" vertex="1">
          <mxGeometry x="930" y="-730" width="100" height="40" as="geometry" />
        </mxCell>
        <mxCell id="qT0dpiHwQ6VjPCAu0W2Q-71" value="" style="rounded=0;orthogonalLoop=1;jettySize=auto;html=1;endArrow=none;endFill=0;entryX=0.153;entryY=-0.014;entryDx=0;entryDy=0;entryPerimeter=0;" parent="1" source="qT0dpiHwQ6VjPCAu0W2Q-70" target="qT0dpiHwQ6VjPCAu0W2Q-54" edge="1">
          <mxGeometry relative="1" as="geometry" />
        </mxCell>
        <mxCell id="qT0dpiHwQ6VjPCAu0W2Q-70" value="studentSSN" style="ellipse;whiteSpace=wrap;html=1;align=center;fontStyle=4;rotation=-15;" parent="1" vertex="1">
          <mxGeometry x="700" y="-624" width="100" height="40" as="geometry" />
        </mxCell>
        <mxCell id="qT0dpiHwQ6VjPCAu0W2Q-74" style="rounded=0;orthogonalLoop=1;jettySize=auto;html=1;entryX=0.329;entryY=0.029;entryDx=0;entryDy=0;entryPerimeter=0;endArrow=none;endFill=0;exitX=0.5;exitY=1;exitDx=0;exitDy=0;" parent="1" source="qT0dpiHwQ6VjPCAu0W2Q-83" target="qT0dpiHwQ6VjPCAu0W2Q-54" edge="1">
          <mxGeometry relative="1" as="geometry">
            <mxPoint x="553.7964941364753" y="-713.3303343973129" as="sourcePoint" />
          </mxGeometry>
        </mxCell>
        <mxCell id="qT0dpiHwQ6VjPCAu0W2Q-79" style="rounded=0;orthogonalLoop=1;jettySize=auto;html=1;entryX=0.71;entryY=0.014;entryDx=0;entryDy=0;entryPerimeter=0;endArrow=none;endFill=0;" parent="1" source="qT0dpiHwQ6VjPCAu0W2Q-68" target="qT0dpiHwQ6VjPCAu0W2Q-54" edge="1">
          <mxGeometry relative="1" as="geometry" />
        </mxCell>
        <mxCell id="qT0dpiHwQ6VjPCAu0W2Q-80" value="address" style="ellipse;whiteSpace=wrap;html=1;align=center;rotation=0;" parent="1" vertex="1">
          <mxGeometry x="980" y="-680" width="100" height="40" as="geometry" />
        </mxCell>
        <mxCell id="qT0dpiHwQ6VjPCAu0W2Q-81" style="rounded=0;orthogonalLoop=1;jettySize=auto;html=1;entryX=0.585;entryY=-0.014;entryDx=0;entryDy=0;endArrow=none;endFill=0;entryPerimeter=0;" parent="1" source="qT0dpiHwQ6VjPCAu0W2Q-80" target="qT0dpiHwQ6VjPCAu0W2Q-54" edge="1">
          <mxGeometry relative="1" as="geometry" />
        </mxCell>
        <mxCell id="qT0dpiHwQ6VjPCAu0W2Q-83" value="name" style="ellipse;whiteSpace=wrap;html=1;align=center;rotation=-15;" parent="1" vertex="1">
          <mxGeometry x="790" y="-670" width="100" height="40" as="geometry" />
        </mxCell>
        <mxCell id="jqrT2KOwgC5lnNY_3PT0-93" style="edgeStyle=orthogonalEdgeStyle;rounded=0;orthogonalLoop=1;jettySize=auto;html=1;endArrow=none;endFill=0;startArrow=ERmandOne;startFill=0;" parent="1" source="qT0dpiHwQ6VjPCAu0W2Q-95" target="jqrT2KOwgC5lnNY_3PT0-47" edge="1">
          <mxGeometry relative="1" as="geometry">
            <Array as="points">
              <mxPoint x="460" y="-20" />
              <mxPoint x="460" y="210" />
              <mxPoint x="1160" y="210" />
            </Array>
          </mxGeometry>
        </mxCell>
        <mxCell id="qT0dpiHwQ6VjPCAu0W2Q-95" value="&lt;font style=&quot;font-size: 20px;&quot;&gt;Instructor&lt;/font&gt;" style="rounded=1;arcSize=10;whiteSpace=wrap;html=1;align=center;" parent="1" vertex="1">
          <mxGeometry x="50" y="-70" width="280" height="70" as="geometry" />
        </mxCell>
        <mxCell id="qT0dpiHwQ6VjPCAu0W2Q-96" value="Suprivse" style="shape=rhombus;perimeter=rhombusPerimeter;whiteSpace=wrap;html=1;align=center;" parent="1" vertex="1">
          <mxGeometry x="-140" y="-170" width="120" height="60" as="geometry" />
        </mxCell>
        <mxCell id="qT0dpiHwQ6VjPCAu0W2Q-97" style="edgeStyle=orthogonalEdgeStyle;rounded=0;orthogonalLoop=1;jettySize=auto;html=1;entryX=0.006;entryY=0.671;entryDx=0;entryDy=0;entryPerimeter=0;endArrow=ERmandOne;endFill=0;" parent="1" source="qT0dpiHwQ6VjPCAu0W2Q-96" target="qT0dpiHwQ6VjPCAu0W2Q-95" edge="1">
          <mxGeometry relative="1" as="geometry">
            <Array as="points">
              <mxPoint x="-80" y="-23" />
            </Array>
          </mxGeometry>
        </mxCell>
        <mxCell id="qT0dpiHwQ6VjPCAu0W2Q-98" style="rounded=0;orthogonalLoop=1;jettySize=auto;html=1;entryX=0.412;entryY=1;entryDx=0;entryDy=0;entryPerimeter=0;endArrow=ERzeroToOne;endFill=0;" parent="1" source="qT0dpiHwQ6VjPCAu0W2Q-96" target="qT0dpiHwQ6VjPCAu0W2Q-2" edge="1">
          <mxGeometry relative="1" as="geometry" />
        </mxCell>
        <mxCell id="qT0dpiHwQ6VjPCAu0W2Q-106" style="edgeStyle=orthogonalEdgeStyle;rounded=0;orthogonalLoop=1;jettySize=auto;html=1;entryX=1;entryY=0.5;entryDx=0;entryDy=0;endArrow=ERmandOne;endFill=0;" parent="1" source="qT0dpiHwQ6VjPCAu0W2Q-99" target="qT0dpiHwQ6VjPCAu0W2Q-2" edge="1">
          <mxGeometry relative="1" as="geometry" />
        </mxCell>
        <mxCell id="jqrT2KOwgC5lnNY_3PT0-26" style="rounded=0;orthogonalLoop=1;jettySize=auto;html=1;exitX=0.5;exitY=1;exitDx=0;exitDy=0;entryX=0.107;entryY=0;entryDx=0;entryDy=0;entryPerimeter=0;endArrow=ERoneToMany;endFill=0;" parent="1" source="qT0dpiHwQ6VjPCAu0W2Q-99" target="qT0dpiHwQ6VjPCAu0W2Q-95" edge="1">
          <mxGeometry relative="1" as="geometry" />
        </mxCell>
        <mxCell id="qT0dpiHwQ6VjPCAu0W2Q-99" value="Works_For" style="shape=rhombus;perimeter=rhombusPerimeter;whiteSpace=wrap;html=1;align=center;" parent="1" vertex="1">
          <mxGeometry x="20" y="-260" width="120" height="60" as="geometry" />
        </mxCell>
        <mxCell id="qT0dpiHwQ6VjPCAu0W2Q-100" value="studentPassword&lt;br&gt;" style="ellipse;whiteSpace=wrap;html=1;align=center;rotation=7;" parent="1" vertex="1">
          <mxGeometry x="1130" y="-650" width="120" height="40" as="geometry" />
        </mxCell>
        <mxCell id="qT0dpiHwQ6VjPCAu0W2Q-101" style="rounded=0;orthogonalLoop=1;jettySize=auto;html=1;entryX=0.843;entryY=-0.014;entryDx=0;entryDy=0;endArrow=none;endFill=0;entryPerimeter=0;" parent="1" source="qT0dpiHwQ6VjPCAu0W2Q-100" target="qT0dpiHwQ6VjPCAu0W2Q-54" edge="1">
          <mxGeometry relative="1" as="geometry">
            <mxPoint x="860" y="-580" as="targetPoint" />
          </mxGeometry>
        </mxCell>
        <mxCell id="qT0dpiHwQ6VjPCAu0W2Q-111" style="rounded=0;orthogonalLoop=1;jettySize=auto;html=1;endArrow=none;endFill=0;" parent="1" source="qT0dpiHwQ6VjPCAu0W2Q-110" target="qT0dpiHwQ6VjPCAu0W2Q-28" edge="1">
          <mxGeometry relative="1" as="geometry" />
        </mxCell>
        <mxCell id="qT0dpiHwQ6VjPCAu0W2Q-110" value="graduationDate" style="ellipse;whiteSpace=wrap;html=1;align=center;" parent="1" vertex="1">
          <mxGeometry x="160" y="-400" width="100" height="40" as="geometry" />
        </mxCell>
        <mxCell id="jqrT2KOwgC5lnNY_3PT0-3" style="rounded=0;orthogonalLoop=1;jettySize=auto;html=1;endArrow=none;endFill=0;" parent="1" source="qT0dpiHwQ6VjPCAu0W2Q-112" target="qT0dpiHwQ6VjPCAu0W2Q-95" edge="1">
          <mxGeometry relative="1" as="geometry" />
        </mxCell>
        <mxCell id="qT0dpiHwQ6VjPCAu0W2Q-112" value="instructorSSN" style="ellipse;whiteSpace=wrap;html=1;align=center;fontStyle=4;" parent="1" vertex="1">
          <mxGeometry x="-40" y="60" width="100" height="40" as="geometry" />
        </mxCell>
        <mxCell id="jqrT2KOwgC5lnNY_3PT0-5" style="rounded=0;orthogonalLoop=1;jettySize=auto;html=1;endArrow=none;endFill=0;" parent="1" source="qT0dpiHwQ6VjPCAu0W2Q-114" target="qT0dpiHwQ6VjPCAu0W2Q-95" edge="1">
          <mxGeometry relative="1" as="geometry" />
        </mxCell>
        <mxCell id="qT0dpiHwQ6VjPCAu0W2Q-114" value="instructorEmail" style="ellipse;whiteSpace=wrap;html=1;align=center;fontStyle=4;" parent="1" vertex="1">
          <mxGeometry x="100" y="80" width="100" height="40" as="geometry" />
        </mxCell>
        <mxCell id="jqrT2KOwgC5lnNY_3PT0-4" style="rounded=0;orthogonalLoop=1;jettySize=auto;html=1;startArrow=none;startFill=0;endArrow=none;endFill=0;" parent="1" source="qT0dpiHwQ6VjPCAu0W2Q-115" target="qT0dpiHwQ6VjPCAu0W2Q-95" edge="1">
          <mxGeometry relative="1" as="geometry" />
        </mxCell>
        <mxCell id="qT0dpiHwQ6VjPCAu0W2Q-115" value="name" style="ellipse;whiteSpace=wrap;html=1;align=center;" parent="1" vertex="1">
          <mxGeometry x="20" y="110" width="100" height="40" as="geometry" />
        </mxCell>
        <mxCell id="jqrT2KOwgC5lnNY_3PT0-8" style="rounded=0;orthogonalLoop=1;jettySize=auto;html=1;entryX=0.75;entryY=1;entryDx=0;entryDy=0;endArrow=none;endFill=0;" parent="1" source="qT0dpiHwQ6VjPCAu0W2Q-116" target="qT0dpiHwQ6VjPCAu0W2Q-95" edge="1">
          <mxGeometry relative="1" as="geometry" />
        </mxCell>
        <mxCell id="qT0dpiHwQ6VjPCAu0W2Q-116" value="dateOfBirth" style="ellipse;whiteSpace=wrap;html=1;align=center;rotation=0;" parent="1" vertex="1">
          <mxGeometry x="345" y="110" width="100" height="40" as="geometry" />
        </mxCell>
        <mxCell id="jqrT2KOwgC5lnNY_3PT0-7" style="rounded=0;orthogonalLoop=1;jettySize=auto;html=1;endArrow=none;endFill=0;" parent="1" source="qT0dpiHwQ6VjPCAu0W2Q-117" target="qT0dpiHwQ6VjPCAu0W2Q-95" edge="1">
          <mxGeometry relative="1" as="geometry" />
        </mxCell>
        <mxCell id="qT0dpiHwQ6VjPCAu0W2Q-117" value="phoneNumber" style="ellipse;whiteSpace=wrap;html=1;align=center;rotation=0;" parent="1" vertex="1">
          <mxGeometry x="230" y="60" width="100" height="40" as="geometry" />
        </mxCell>
        <mxCell id="jqrT2KOwgC5lnNY_3PT0-6" style="rounded=0;orthogonalLoop=1;jettySize=auto;html=1;endArrow=none;endFill=0;" parent="1" source="qT0dpiHwQ6VjPCAu0W2Q-119" target="qT0dpiHwQ6VjPCAu0W2Q-95" edge="1">
          <mxGeometry relative="1" as="geometry" />
        </mxCell>
        <mxCell id="qT0dpiHwQ6VjPCAu0W2Q-119" value="address" style="ellipse;whiteSpace=wrap;html=1;align=center;rotation=0;" parent="1" vertex="1">
          <mxGeometry x="190" y="120" width="100" height="40" as="geometry" />
        </mxCell>
        <mxCell id="jqrT2KOwgC5lnNY_3PT0-1" value="yearsOfExperience" style="ellipse;whiteSpace=wrap;html=1;align=center;rotation=0;" parent="1" vertex="1">
          <mxGeometry x="500" y="20" width="110" height="40" as="geometry" />
        </mxCell>
        <mxCell id="jqrT2KOwgC5lnNY_3PT0-9" style="rounded=0;orthogonalLoop=1;jettySize=auto;html=1;entryX=0.658;entryY=0.85;entryDx=0;entryDy=0;entryPerimeter=0;endArrow=none;endFill=0;" parent="1" source="jqrT2KOwgC5lnNY_3PT0-1" target="jqrT2KOwgC5lnNY_3PT0-23" edge="1">
          <mxGeometry relative="1" as="geometry">
            <Array as="points" />
          </mxGeometry>
        </mxCell>
        <mxCell id="jqrT2KOwgC5lnNY_3PT0-91" style="edgeStyle=orthogonalEdgeStyle;rounded=0;orthogonalLoop=1;jettySize=auto;html=1;entryX=0;entryY=0.5;entryDx=0;entryDy=0;endArrow=none;endFill=0;startArrow=ERmandOne;startFill=0;" parent="1" source="jqrT2KOwgC5lnNY_3PT0-22" target="jqrT2KOwgC5lnNY_3PT0-46" edge="1">
          <mxGeometry relative="1" as="geometry" />
        </mxCell>
        <mxCell id="jqrT2KOwgC5lnNY_3PT0-136" style="edgeStyle=orthogonalEdgeStyle;rounded=0;orthogonalLoop=1;jettySize=auto;html=1;entryX=1;entryY=0.5;entryDx=0;entryDy=0;endArrow=none;endFill=0;startArrow=ERzeroToMany;startFill=0;" parent="1" source="jqrT2KOwgC5lnNY_3PT0-22" target="jqrT2KOwgC5lnNY_3PT0-130" edge="1">
          <mxGeometry relative="1" as="geometry">
            <Array as="points">
              <mxPoint x="920" y="-140" />
            </Array>
          </mxGeometry>
        </mxCell>
        <mxCell id="jqrT2KOwgC5lnNY_3PT0-22" value="&lt;font style=&quot;font-size: 20px;&quot;&gt;Course&lt;/font&gt;" style="rounded=1;arcSize=10;whiteSpace=wrap;html=1;align=center;" parent="1" vertex="1">
          <mxGeometry x="690" y="-65" width="250" height="70" as="geometry" />
        </mxCell>
        <mxCell id="jqrT2KOwgC5lnNY_3PT0-25" style="rounded=0;orthogonalLoop=1;jettySize=auto;html=1;entryX=0;entryY=0.5;entryDx=0;entryDy=0;endArrow=ERzeroToMany;endFill=0;" parent="1" source="jqrT2KOwgC5lnNY_3PT0-23" target="jqrT2KOwgC5lnNY_3PT0-22" edge="1">
          <mxGeometry relative="1" as="geometry" />
        </mxCell>
        <mxCell id="jqrT2KOwgC5lnNY_3PT0-23" value="Experienced_In" style="shape=rhombus;perimeter=rhombusPerimeter;whiteSpace=wrap;html=1;align=center;" parent="1" vertex="1">
          <mxGeometry x="465" y="-60" width="120" height="60" as="geometry" />
        </mxCell>
        <mxCell id="jqrT2KOwgC5lnNY_3PT0-24" style="rounded=0;orthogonalLoop=1;jettySize=auto;html=1;entryX=0;entryY=0.5;entryDx=0;entryDy=0;endArrow=none;endFill=0;startArrow=ERoneToMany;startFill=0;" parent="1" source="qT0dpiHwQ6VjPCAu0W2Q-95" target="jqrT2KOwgC5lnNY_3PT0-23" edge="1">
          <mxGeometry relative="1" as="geometry" />
        </mxCell>
        <mxCell id="jqrT2KOwgC5lnNY_3PT0-28" style="rounded=0;orthogonalLoop=1;jettySize=auto;html=1;endArrow=none;endFill=0;" parent="1" source="jqrT2KOwgC5lnNY_3PT0-27" target="qT0dpiHwQ6VjPCAu0W2Q-95" edge="1">
          <mxGeometry relative="1" as="geometry" />
        </mxCell>
        <mxCell id="jqrT2KOwgC5lnNY_3PT0-27" value="qualifications" style="ellipse;shape=doubleEllipse;margin=3;whiteSpace=wrap;html=1;align=center;" parent="1" vertex="1">
          <mxGeometry x="335" y="20" width="100" height="40" as="geometry" />
        </mxCell>
        <mxCell id="jqrT2KOwgC5lnNY_3PT0-36" style="rounded=0;orthogonalLoop=1;jettySize=auto;html=1;endArrow=none;endFill=0;" parent="1" source="jqrT2KOwgC5lnNY_3PT0-29" target="jqrT2KOwgC5lnNY_3PT0-22" edge="1">
          <mxGeometry relative="1" as="geometry" />
        </mxCell>
        <mxCell id="jqrT2KOwgC5lnNY_3PT0-29" value="courseCode" style="ellipse;whiteSpace=wrap;html=1;align=center;fontStyle=4;" parent="1" vertex="1">
          <mxGeometry x="650" y="50" width="100" height="40" as="geometry" />
        </mxCell>
        <mxCell id="jqrT2KOwgC5lnNY_3PT0-37" style="rounded=0;orthogonalLoop=1;jettySize=auto;html=1;entryX=0.5;entryY=1;entryDx=0;entryDy=0;endArrow=none;endFill=0;" parent="1" source="jqrT2KOwgC5lnNY_3PT0-30" target="jqrT2KOwgC5lnNY_3PT0-22" edge="1">
          <mxGeometry relative="1" as="geometry" />
        </mxCell>
        <mxCell id="jqrT2KOwgC5lnNY_3PT0-30" value="courseName" style="ellipse;whiteSpace=wrap;html=1;align=center;fontStyle=4;" parent="1" vertex="1">
          <mxGeometry x="680" y="100" width="100" height="40" as="geometry" />
        </mxCell>
        <mxCell id="jqrT2KOwgC5lnNY_3PT0-32" value="creditHours" style="ellipse;whiteSpace=wrap;html=1;align=center;" parent="1" vertex="1">
          <mxGeometry x="765" y="130" width="100" height="40" as="geometry" />
        </mxCell>
        <mxCell id="jqrT2KOwgC5lnNY_3PT0-39" style="rounded=0;orthogonalLoop=1;jettySize=auto;html=1;endArrow=none;endFill=0;" parent="1" source="jqrT2KOwgC5lnNY_3PT0-33" target="jqrT2KOwgC5lnNY_3PT0-22" edge="1">
          <mxGeometry relative="1" as="geometry" />
        </mxCell>
        <mxCell id="jqrT2KOwgC5lnNY_3PT0-33" value="courseSyllabus" style="ellipse;whiteSpace=wrap;html=1;align=center;" parent="1" vertex="1">
          <mxGeometry x="850" y="100" width="100" height="40" as="geometry" />
        </mxCell>
        <mxCell id="jqrT2KOwgC5lnNY_3PT0-34" value="courseDescription" style="ellipse;whiteSpace=wrap;html=1;align=center;" parent="1" vertex="1">
          <mxGeometry x="890" y="50" width="100" height="40" as="geometry" />
        </mxCell>
        <mxCell id="jqrT2KOwgC5lnNY_3PT0-38" style="rounded=0;orthogonalLoop=1;jettySize=auto;html=1;entryX=0.56;entryY=0.986;entryDx=0;entryDy=0;entryPerimeter=0;endArrow=none;endFill=0;" parent="1" source="jqrT2KOwgC5lnNY_3PT0-32" target="jqrT2KOwgC5lnNY_3PT0-22" edge="1">
          <mxGeometry relative="1" as="geometry" />
        </mxCell>
        <mxCell id="jqrT2KOwgC5lnNY_3PT0-40" style="rounded=0;orthogonalLoop=1;jettySize=auto;html=1;entryX=0.592;entryY=0.986;entryDx=0;entryDy=0;entryPerimeter=0;endArrow=none;endFill=0;" parent="1" source="jqrT2KOwgC5lnNY_3PT0-34" target="jqrT2KOwgC5lnNY_3PT0-22" edge="1">
          <mxGeometry relative="1" as="geometry" />
        </mxCell>
        <mxCell id="cAhNPsWoJ3iRB7GT_abN-4" style="rounded=0;orthogonalLoop=1;jettySize=auto;html=1;endArrow=none;endFill=0;" parent="1" source="jqrT2KOwgC5lnNY_3PT0-41" target="cAhNPsWoJ3iRB7GT_abN-3" edge="1">
          <mxGeometry relative="1" as="geometry" />
        </mxCell>
        <mxCell id="jqrT2KOwgC5lnNY_3PT0-41" value="&lt;font style=&quot;font-size: 20px;&quot;&gt;Class&lt;/font&gt;" style="rounded=1;arcSize=10;whiteSpace=wrap;html=1;align=center;" parent="1" vertex="1">
          <mxGeometry x="1160" y="-95" width="250" height="70" as="geometry" />
        </mxCell>
        <mxCell id="jqrT2KOwgC5lnNY_3PT0-43" style="edgeStyle=orthogonalEdgeStyle;rounded=0;orthogonalLoop=1;jettySize=auto;html=1;endArrow=ERoneToMany;endFill=0;" parent="1" source="jqrT2KOwgC5lnNY_3PT0-42" target="jqrT2KOwgC5lnNY_3PT0-22" edge="1">
          <mxGeometry relative="1" as="geometry">
            <Array as="points">
              <mxPoint x="740" y="-190" />
            </Array>
          </mxGeometry>
        </mxCell>
        <mxCell id="jqrT2KOwgC5lnNY_3PT0-42" value="Contains" style="shape=rhombus;perimeter=rhombusPerimeter;whiteSpace=wrap;html=1;align=center;" parent="1" vertex="1">
          <mxGeometry x="430" y="-220" width="120" height="60" as="geometry" />
        </mxCell>
        <mxCell id="jqrT2KOwgC5lnNY_3PT0-44" style="edgeStyle=orthogonalEdgeStyle;rounded=0;orthogonalLoop=1;jettySize=auto;html=1;entryX=0.435;entryY=1.014;entryDx=0;entryDy=0;entryPerimeter=0;endArrow=ERoneToMany;endFill=0;" parent="1" source="jqrT2KOwgC5lnNY_3PT0-42" target="qT0dpiHwQ6VjPCAu0W2Q-1" edge="1">
          <mxGeometry relative="1" as="geometry" />
        </mxCell>
        <mxCell id="jqrT2KOwgC5lnNY_3PT0-53" style="rounded=0;orthogonalLoop=1;jettySize=auto;html=1;entryX=0;entryY=0.25;entryDx=0;entryDy=0;endArrow=ERoneToMany;endFill=0;edgeStyle=orthogonalEdgeStyle;" parent="1" source="jqrT2KOwgC5lnNY_3PT0-45" target="jqrT2KOwgC5lnNY_3PT0-41" edge="1">
          <mxGeometry relative="1" as="geometry" />
        </mxCell>
        <mxCell id="jqrT2KOwgC5lnNY_3PT0-45" value="Initiate" style="shape=rhombus;perimeter=rhombusPerimeter;whiteSpace=wrap;html=1;align=center;" parent="1" vertex="1">
          <mxGeometry x="860" y="-205" width="120" height="60" as="geometry" />
        </mxCell>
        <mxCell id="jqrT2KOwgC5lnNY_3PT0-46" value="Assign" style="shape=rhombus;perimeter=rhombusPerimeter;whiteSpace=wrap;html=1;align=center;" parent="1" vertex="1">
          <mxGeometry x="990" y="-55" width="120" height="60" as="geometry" />
        </mxCell>
        <mxCell id="jqrT2KOwgC5lnNY_3PT0-47" value="Teach_In" style="shape=rhombus;perimeter=rhombusPerimeter;whiteSpace=wrap;html=1;align=center;" parent="1" vertex="1">
          <mxGeometry x="1100" y="140" width="120" height="60" as="geometry" />
        </mxCell>
        <mxCell id="jqrT2KOwgC5lnNY_3PT0-54" value="classID" style="ellipse;whiteSpace=wrap;html=1;align=center;fontStyle=4;rotation=10;" parent="1" vertex="1">
          <mxGeometry x="1580" y="-55" width="100" height="40" as="geometry" />
        </mxCell>
        <mxCell id="jqrT2KOwgC5lnNY_3PT0-55" style="rounded=0;orthogonalLoop=1;jettySize=auto;html=1;entryX=0.996;entryY=0.614;entryDx=0;entryDy=0;entryPerimeter=0;endArrow=none;endFill=0;" parent="1" source="jqrT2KOwgC5lnNY_3PT0-54" target="jqrT2KOwgC5lnNY_3PT0-41" edge="1">
          <mxGeometry relative="1" as="geometry" />
        </mxCell>
        <mxCell id="jqrT2KOwgC5lnNY_3PT0-57" style="rounded=0;orthogonalLoop=1;jettySize=auto;html=1;entryX=1;entryY=0.75;entryDx=0;entryDy=0;endArrow=none;endFill=0;" parent="1" source="jqrT2KOwgC5lnNY_3PT0-56" target="jqrT2KOwgC5lnNY_3PT0-41" edge="1">
          <mxGeometry relative="1" as="geometry" />
        </mxCell>
        <mxCell id="jqrT2KOwgC5lnNY_3PT0-56" value="startDate" style="ellipse;whiteSpace=wrap;html=1;align=center;rotation=15;" parent="1" vertex="1">
          <mxGeometry x="1460" y="-45" width="100" height="40" as="geometry" />
        </mxCell>
        <mxCell id="jqrT2KOwgC5lnNY_3PT0-62" style="rounded=0;orthogonalLoop=1;jettySize=auto;html=1;entryX=0.908;entryY=1.014;entryDx=0;entryDy=0;endArrow=none;endFill=0;entryPerimeter=0;" parent="1" source="jqrT2KOwgC5lnNY_3PT0-58" target="jqrT2KOwgC5lnNY_3PT0-41" edge="1">
          <mxGeometry relative="1" as="geometry">
            <mxPoint x="1200" y="-250" as="targetPoint" />
          </mxGeometry>
        </mxCell>
        <mxCell id="jqrT2KOwgC5lnNY_3PT0-58" value="endDate" style="ellipse;whiteSpace=wrap;html=1;align=center;rotation=15;" parent="1" vertex="1">
          <mxGeometry x="1525" y="10" width="100" height="40" as="geometry" />
        </mxCell>
        <mxCell id="jqrT2KOwgC5lnNY_3PT0-59" value="classType" style="ellipse;whiteSpace=wrap;html=1;align=center;rotation=15;" parent="1" vertex="1">
          <mxGeometry x="1420" y="5" width="100" height="40" as="geometry" />
        </mxCell>
        <mxCell id="jqrT2KOwgC5lnNY_3PT0-64" style="rounded=0;orthogonalLoop=1;jettySize=auto;html=1;endArrow=none;endFill=0;" parent="1" source="jqrT2KOwgC5lnNY_3PT0-60" target="jqrT2KOwgC5lnNY_3PT0-41" edge="1">
          <mxGeometry relative="1" as="geometry" />
        </mxCell>
        <mxCell id="jqrT2KOwgC5lnNY_3PT0-60" value="projectPercentage" style="ellipse;whiteSpace=wrap;html=1;align=center;rotation=15;" parent="1" vertex="1">
          <mxGeometry x="1460" y="80" width="100" height="40" as="geometry" />
        </mxCell>
        <mxCell id="jqrT2KOwgC5lnNY_3PT0-63" style="rounded=0;orthogonalLoop=1;jettySize=auto;html=1;entryX=0.75;entryY=1;entryDx=0;entryDy=0;endArrow=none;endFill=0;" parent="1" source="jqrT2KOwgC5lnNY_3PT0-59" target="jqrT2KOwgC5lnNY_3PT0-41" edge="1">
          <mxGeometry relative="1" as="geometry" />
        </mxCell>
        <mxCell id="jqrT2KOwgC5lnNY_3PT0-66" value="&lt;font style=&quot;font-size: 20px;&quot;&gt;Schedule&lt;/font&gt;" style="rounded=1;arcSize=10;whiteSpace=wrap;html=1;align=center;" parent="1" vertex="1">
          <mxGeometry x="1440" y="-450" width="250" height="70" as="geometry" />
        </mxCell>
        <mxCell id="jqrT2KOwgC5lnNY_3PT0-67" value="Establish" style="shape=rhombus;perimeter=rhombusPerimeter;whiteSpace=wrap;html=1;align=center;" parent="1" vertex="1">
          <mxGeometry x="1580" y="-220" width="120" height="60" as="geometry" />
        </mxCell>
        <mxCell id="jqrT2KOwgC5lnNY_3PT0-69" style="edgeStyle=orthogonalEdgeStyle;rounded=0;orthogonalLoop=1;jettySize=auto;html=1;endArrow=ERmandOne;endFill=0;entryX=1.008;entryY=0.371;entryDx=0;entryDy=0;entryPerimeter=0;" parent="1" source="jqrT2KOwgC5lnNY_3PT0-67" target="jqrT2KOwgC5lnNY_3PT0-41" edge="1">
          <mxGeometry relative="1" as="geometry">
            <mxPoint x="1090" y="-330" as="targetPoint" />
            <Array as="points">
              <mxPoint x="1640" y="-69" />
            </Array>
          </mxGeometry>
        </mxCell>
        <mxCell id="jqrT2KOwgC5lnNY_3PT0-70" value="Attend" style="shape=rhombus;perimeter=rhombusPerimeter;whiteSpace=wrap;html=1;align=center;" parent="1" vertex="1">
          <mxGeometry x="1515" y="-584" width="120" height="60" as="geometry" />
        </mxCell>
        <mxCell id="jqrT2KOwgC5lnNY_3PT0-71" value="scheduleID" style="ellipse;whiteSpace=wrap;html=1;align=center;fontStyle=4;rotation=0;" parent="1" vertex="1">
          <mxGeometry x="1740" y="-500" width="100" height="40" as="geometry" />
        </mxCell>
        <mxCell id="jqrT2KOwgC5lnNY_3PT0-76" style="rounded=0;orthogonalLoop=1;jettySize=auto;html=1;endArrow=none;endFill=0;" parent="1" source="jqrT2KOwgC5lnNY_3PT0-72" target="jqrT2KOwgC5lnNY_3PT0-66" edge="1">
          <mxGeometry relative="1" as="geometry" />
        </mxCell>
        <mxCell id="jqrT2KOwgC5lnNY_3PT0-72" value="dayOfWeek" style="ellipse;whiteSpace=wrap;html=1;align=center;rotation=0;" parent="1" vertex="1">
          <mxGeometry x="1740" y="-440" width="100" height="40" as="geometry" />
        </mxCell>
        <mxCell id="jqrT2KOwgC5lnNY_3PT0-73" value="startTime" style="ellipse;whiteSpace=wrap;html=1;align=center;rotation=0;" parent="1" vertex="1">
          <mxGeometry x="1730" y="-390" width="100" height="40" as="geometry" />
        </mxCell>
        <mxCell id="jqrT2KOwgC5lnNY_3PT0-78" style="rounded=0;orthogonalLoop=1;jettySize=auto;html=1;entryX=1;entryY=0.75;entryDx=0;entryDy=0;endArrow=none;endFill=0;" parent="1" source="jqrT2KOwgC5lnNY_3PT0-74" target="jqrT2KOwgC5lnNY_3PT0-66" edge="1">
          <mxGeometry relative="1" as="geometry" />
        </mxCell>
        <mxCell id="jqrT2KOwgC5lnNY_3PT0-74" value="endTime" style="ellipse;whiteSpace=wrap;html=1;align=center;rotation=0;" parent="1" vertex="1">
          <mxGeometry x="1720" y="-340" width="100" height="40" as="geometry" />
        </mxCell>
        <mxCell id="jqrT2KOwgC5lnNY_3PT0-75" style="rounded=0;orthogonalLoop=1;jettySize=auto;html=1;entryX=1.004;entryY=0.357;entryDx=0;entryDy=0;entryPerimeter=0;endArrow=none;endFill=0;" parent="1" source="jqrT2KOwgC5lnNY_3PT0-71" target="jqrT2KOwgC5lnNY_3PT0-66" edge="1">
          <mxGeometry relative="1" as="geometry" />
        </mxCell>
        <mxCell id="jqrT2KOwgC5lnNY_3PT0-77" style="rounded=0;orthogonalLoop=1;jettySize=auto;html=1;entryX=1.004;entryY=0.614;entryDx=0;entryDy=0;entryPerimeter=0;endArrow=none;endFill=0;" parent="1" source="jqrT2KOwgC5lnNY_3PT0-73" target="jqrT2KOwgC5lnNY_3PT0-66" edge="1">
          <mxGeometry relative="1" as="geometry" />
        </mxCell>
        <mxCell id="jqrT2KOwgC5lnNY_3PT0-80" style="rounded=0;orthogonalLoop=1;jettySize=auto;html=1;endArrow=none;endFill=0;entryX=0.5;entryY=0;entryDx=0;entryDy=0;" parent="1" source="jqrT2KOwgC5lnNY_3PT0-79" target="qT0dpiHwQ6VjPCAu0W2Q-1" edge="1">
          <mxGeometry relative="1" as="geometry" />
        </mxCell>
        <mxCell id="jqrT2KOwgC5lnNY_3PT0-79" value="programCategory" style="ellipse;whiteSpace=wrap;html=1;align=center;" parent="1" vertex="1">
          <mxGeometry x="190" y="-690" width="100" height="40" as="geometry" />
        </mxCell>
        <mxCell id="jqrT2KOwgC5lnNY_3PT0-82" value="" style="edgeStyle=orthogonalEdgeStyle;rounded=0;orthogonalLoop=1;jettySize=auto;html=1;endArrow=ERzeroToMany;endFill=0;" parent="1" source="jqrT2KOwgC5lnNY_3PT0-81" target="qT0dpiHwQ6VjPCAu0W2Q-28" edge="1">
          <mxGeometry relative="1" as="geometry" />
        </mxCell>
        <mxCell id="jqrT2KOwgC5lnNY_3PT0-81" value="graduate_From" style="shape=rhombus;perimeter=rhombusPerimeter;whiteSpace=wrap;html=1;align=center;" parent="1" vertex="1">
          <mxGeometry x="240" y="-265" width="120" height="60" as="geometry" />
        </mxCell>
        <mxCell id="jqrT2KOwgC5lnNY_3PT0-83" style="edgeStyle=orthogonalEdgeStyle;rounded=0;orthogonalLoop=1;jettySize=auto;html=1;entryX=0.454;entryY=-0.014;entryDx=0;entryDy=0;entryPerimeter=0;endArrow=ERzeroToMany;endFill=0;" parent="1" source="jqrT2KOwgC5lnNY_3PT0-81" target="qT0dpiHwQ6VjPCAu0W2Q-95" edge="1">
          <mxGeometry relative="1" as="geometry" />
        </mxCell>
        <mxCell id="jqrT2KOwgC5lnNY_3PT0-84" style="rounded=0;orthogonalLoop=1;jettySize=auto;html=1;entryX=0.548;entryY=0.014;entryDx=0;entryDy=0;entryPerimeter=0;endArrow=ERoneToMany;endFill=0;" parent="1" source="jqrT2KOwgC5lnNY_3PT0-70" target="jqrT2KOwgC5lnNY_3PT0-66" edge="1">
          <mxGeometry relative="1" as="geometry" />
        </mxCell>
        <mxCell id="jqrT2KOwgC5lnNY_3PT0-85" style="rounded=0;orthogonalLoop=1;jettySize=auto;html=1;entryX=1.011;entryY=0.386;entryDx=0;entryDy=0;entryPerimeter=0;endArrow=ERoneToMany;endFill=0;" parent="1" source="jqrT2KOwgC5lnNY_3PT0-70" target="qT0dpiHwQ6VjPCAu0W2Q-54" edge="1">
          <mxGeometry relative="1" as="geometry" />
        </mxCell>
        <mxCell id="jqrT2KOwgC5lnNY_3PT0-87" style="rounded=0;orthogonalLoop=1;jettySize=auto;html=1;entryX=0.65;entryY=0.15;entryDx=0;entryDy=0;entryPerimeter=0;endArrow=none;endFill=0;" parent="1" source="jqrT2KOwgC5lnNY_3PT0-86" target="jqrT2KOwgC5lnNY_3PT0-70" edge="1">
          <mxGeometry relative="1" as="geometry" />
        </mxCell>
        <mxCell id="jqrT2KOwgC5lnNY_3PT0-86" value="attendanceStatus" style="ellipse;whiteSpace=wrap;html=1;align=center;rotation=30;" parent="1" vertex="1">
          <mxGeometry x="1570" y="-650" width="100" height="40" as="geometry" />
        </mxCell>
        <mxCell id="jqrT2KOwgC5lnNY_3PT0-88" value="&lt;font style=&quot;font-size: 20px;&quot;&gt;Grade&lt;/font&gt;" style="rounded=1;arcSize=10;whiteSpace=wrap;html=1;align=center;" parent="1" vertex="1">
          <mxGeometry x="1320" y="-790" width="140" height="50" as="geometry" />
        </mxCell>
        <mxCell id="jqrT2KOwgC5lnNY_3PT0-89" value="&lt;font style=&quot;font-size: 20px;&quot;&gt;Assignment&lt;/font&gt;" style="rounded=1;arcSize=10;whiteSpace=wrap;html=1;align=center;" parent="1" vertex="1">
          <mxGeometry x="1370" y="-350" width="140" height="50" as="geometry" />
        </mxCell>
        <mxCell id="jqrT2KOwgC5lnNY_3PT0-90" style="rounded=0;orthogonalLoop=1;jettySize=auto;html=1;entryX=0.8;entryY=0.986;entryDx=0;entryDy=0;entryPerimeter=0;endArrow=ERoneToMany;endFill=0;" parent="1" source="jqrT2KOwgC5lnNY_3PT0-67" target="jqrT2KOwgC5lnNY_3PT0-66" edge="1">
          <mxGeometry relative="1" as="geometry" />
        </mxCell>
        <mxCell id="jqrT2KOwgC5lnNY_3PT0-92" style="edgeStyle=orthogonalEdgeStyle;rounded=0;orthogonalLoop=1;jettySize=auto;html=1;startArrow=none;startFill=0;endArrow=ERoneToMany;endFill=0;entryX=0;entryY=0.643;entryDx=0;entryDy=0;entryPerimeter=0;" parent="1" source="jqrT2KOwgC5lnNY_3PT0-46" target="jqrT2KOwgC5lnNY_3PT0-41" edge="1">
          <mxGeometry relative="1" as="geometry">
            <mxPoint x="1400" y="-4" as="targetPoint" />
          </mxGeometry>
        </mxCell>
        <mxCell id="jqrT2KOwgC5lnNY_3PT0-94" style="edgeStyle=orthogonalEdgeStyle;rounded=0;orthogonalLoop=1;jettySize=auto;html=1;entryX=0.584;entryY=0.986;entryDx=0;entryDy=0;entryPerimeter=0;exitX=0.5;exitY=0;exitDx=0;exitDy=0;endArrow=ERzeroToMany;endFill=0;" parent="1" source="jqrT2KOwgC5lnNY_3PT0-47" target="jqrT2KOwgC5lnNY_3PT0-41" edge="1">
          <mxGeometry relative="1" as="geometry" />
        </mxCell>
        <mxCell id="jqrT2KOwgC5lnNY_3PT0-96" value="" style="edgeStyle=orthogonalEdgeStyle;rounded=0;orthogonalLoop=1;jettySize=auto;html=1;endArrow=ERmandOne;endFill=0;" parent="1" source="jqrT2KOwgC5lnNY_3PT0-95" target="jqrT2KOwgC5lnNY_3PT0-41" edge="1">
          <mxGeometry relative="1" as="geometry">
            <Array as="points">
              <mxPoint x="1360" y="-110" />
              <mxPoint x="1360" y="-110" />
            </Array>
          </mxGeometry>
        </mxCell>
        <mxCell id="jqrT2KOwgC5lnNY_3PT0-97" style="edgeStyle=orthogonalEdgeStyle;rounded=0;orthogonalLoop=1;jettySize=auto;html=1;endArrow=ERzeroToMany;endFill=0;" parent="1" source="jqrT2KOwgC5lnNY_3PT0-95" target="jqrT2KOwgC5lnNY_3PT0-89" edge="1">
          <mxGeometry relative="1" as="geometry" />
        </mxCell>
        <mxCell id="jqrT2KOwgC5lnNY_3PT0-95" value="Allocate" style="shape=rhombus;perimeter=rhombusPerimeter;whiteSpace=wrap;html=1;align=center;" parent="1" vertex="1">
          <mxGeometry x="1300" y="-230" width="120" height="60" as="geometry" />
        </mxCell>
        <mxCell id="jqrT2KOwgC5lnNY_3PT0-101" value="" style="edgeStyle=orthogonalEdgeStyle;rounded=0;orthogonalLoop=1;jettySize=auto;html=1;endArrow=none;endFill=0;startArrow=ERoneToMany;startFill=0;" parent="1" source="qT0dpiHwQ6VjPCAu0W2Q-54" target="jqrT2KOwgC5lnNY_3PT0-100" edge="1">
          <mxGeometry relative="1" as="geometry">
            <mxPoint x="1130" y="-520" as="sourcePoint" />
            <mxPoint x="1410" y="-350" as="targetPoint" />
            <Array as="points">
              <mxPoint x="1230" y="-530" />
            </Array>
          </mxGeometry>
        </mxCell>
        <mxCell id="jqrT2KOwgC5lnNY_3PT0-100" value="Submit" style="shape=rhombus;perimeter=rhombusPerimeter;whiteSpace=wrap;html=1;align=center;" parent="1" vertex="1">
          <mxGeometry x="1170" y="-485" width="120" height="60" as="geometry" />
        </mxCell>
        <mxCell id="jqrT2KOwgC5lnNY_3PT0-104" value="" style="rounded=0;orthogonalLoop=1;jettySize=auto;html=1;endArrow=none;endFill=0;" parent="1" source="jqrT2KOwgC5lnNY_3PT0-103" target="jqrT2KOwgC5lnNY_3PT0-88" edge="1">
          <mxGeometry relative="1" as="geometry" />
        </mxCell>
        <mxCell id="jqrT2KOwgC5lnNY_3PT0-103" value="gradeCode" style="ellipse;whiteSpace=wrap;html=1;align=center;fontStyle=4;rotation=0;" parent="1" vertex="1">
          <mxGeometry x="1415" y="-860" width="100" height="40" as="geometry" />
        </mxCell>
        <mxCell id="jqrT2KOwgC5lnNY_3PT0-106" value="" style="rounded=0;orthogonalLoop=1;jettySize=auto;html=1;endArrow=none;endFill=0;" parent="1" source="jqrT2KOwgC5lnNY_3PT0-105" target="jqrT2KOwgC5lnNY_3PT0-88" edge="1">
          <mxGeometry relative="1" as="geometry" />
        </mxCell>
        <mxCell id="jqrT2KOwgC5lnNY_3PT0-105" value="maxPoint" style="ellipse;whiteSpace=wrap;html=1;align=center;rotation=0;" parent="1" vertex="1">
          <mxGeometry x="1320" y="-880" width="100" height="40" as="geometry" />
        </mxCell>
        <mxCell id="jqrT2KOwgC5lnNY_3PT0-107" value="Test_Evaluate" style="shape=rhombus;perimeter=rhombusPerimeter;whiteSpace=wrap;html=1;align=center;" parent="1" vertex="1">
          <mxGeometry x="770" y="-325" width="120" height="60" as="geometry" />
        </mxCell>
        <mxCell id="jqrT2KOwgC5lnNY_3PT0-108" style="rounded=0;orthogonalLoop=1;jettySize=auto;html=1;entryX=0.384;entryY=0;entryDx=0;entryDy=0;entryPerimeter=0;endArrow=ERoneToMany;endFill=0;startArrow=none;startFill=0;edgeStyle=orthogonalEdgeStyle;" parent="1" source="jqrT2KOwgC5lnNY_3PT0-107" target="jqrT2KOwgC5lnNY_3PT0-41" edge="1">
          <mxGeometry relative="1" as="geometry">
            <Array as="points">
              <mxPoint x="830" y="-250" />
              <mxPoint x="1256" y="-250" />
            </Array>
          </mxGeometry>
        </mxCell>
        <mxCell id="jqrT2KOwgC5lnNY_3PT0-109" style="edgeStyle=orthogonalEdgeStyle;rounded=0;orthogonalLoop=1;jettySize=auto;html=1;entryX=0.5;entryY=0;entryDx=0;entryDy=0;endArrow=none;endFill=0;startArrow=ERzeroToMany;startFill=0;" parent="1" source="qT0dpiHwQ6VjPCAu0W2Q-54" target="jqrT2KOwgC5lnNY_3PT0-107" edge="1">
          <mxGeometry relative="1" as="geometry">
            <Array as="points">
              <mxPoint x="830" y="-330" />
            </Array>
          </mxGeometry>
        </mxCell>
        <mxCell id="jqrT2KOwgC5lnNY_3PT0-117" value="assignmentID" style="ellipse;whiteSpace=wrap;html=1;align=center;fontStyle=4;rotation=0;" parent="1" vertex="1">
          <mxGeometry x="1400" y="-245" width="100" height="40" as="geometry" />
        </mxCell>
        <mxCell id="jqrT2KOwgC5lnNY_3PT0-118" style="rounded=0;orthogonalLoop=1;jettySize=auto;html=1;entryX=0.679;entryY=1.08;entryDx=0;entryDy=0;entryPerimeter=0;endArrow=none;endFill=0;" parent="1" source="jqrT2KOwgC5lnNY_3PT0-117" target="jqrT2KOwgC5lnNY_3PT0-89" edge="1">
          <mxGeometry relative="1" as="geometry" />
        </mxCell>
        <mxCell id="jqrT2KOwgC5lnNY_3PT0-120" style="rounded=0;orthogonalLoop=1;jettySize=auto;html=1;entryX=0.807;entryY=1.08;entryDx=0;entryDy=0;endArrow=none;endFill=0;entryPerimeter=0;" parent="1" source="jqrT2KOwgC5lnNY_3PT0-119" target="jqrT2KOwgC5lnNY_3PT0-89" edge="1">
          <mxGeometry relative="1" as="geometry" />
        </mxCell>
        <mxCell id="jqrT2KOwgC5lnNY_3PT0-119" value="assignmentDescription" style="ellipse;whiteSpace=wrap;html=1;align=center;rotation=0;" parent="1" vertex="1">
          <mxGeometry x="1470" y="-275" width="130" height="40" as="geometry" />
        </mxCell>
        <mxCell id="jqrT2KOwgC5lnNY_3PT0-124" style="rounded=0;orthogonalLoop=1;jettySize=auto;html=1;entryX=1;entryY=0.25;entryDx=0;entryDy=0;endArrow=none;endFill=0;" parent="1" source="jqrT2KOwgC5lnNY_3PT0-123" target="jqrT2KOwgC5lnNY_3PT0-89" edge="1">
          <mxGeometry relative="1" as="geometry" />
        </mxCell>
        <mxCell id="jqrT2KOwgC5lnNY_3PT0-123" value="assignmentType" style="ellipse;whiteSpace=wrap;html=1;align=center;rotation=0;" parent="1" vertex="1">
          <mxGeometry x="1520" y="-320" width="100" height="40" as="geometry" />
        </mxCell>
        <mxCell id="jqrT2KOwgC5lnNY_3PT0-129" style="rounded=0;orthogonalLoop=1;jettySize=auto;html=1;entryX=1;entryY=0.25;entryDx=0;entryDy=0;endArrow=none;endFill=0;" parent="1" source="jqrT2KOwgC5lnNY_3PT0-127" target="jqrT2KOwgC5lnNY_3PT0-89" edge="1">
          <mxGeometry relative="1" as="geometry" />
        </mxCell>
        <mxCell id="jqrT2KOwgC5lnNY_3PT0-127" value="deadLineTimestamp" style="ellipse;whiteSpace=wrap;html=1;align=center;rotation=0;" parent="1" vertex="1">
          <mxGeometry x="1520" y="-375" width="110" height="40" as="geometry" />
        </mxCell>
        <mxCell id="jqrT2KOwgC5lnNY_3PT0-134" style="edgeStyle=orthogonalEdgeStyle;rounded=0;orthogonalLoop=1;jettySize=auto;html=1;endArrow=ERzeroToMany;endFill=0;" parent="1" source="jqrT2KOwgC5lnNY_3PT0-130" target="jqrT2KOwgC5lnNY_3PT0-22" edge="1">
          <mxGeometry relative="1" as="geometry">
            <Array as="points">
              <mxPoint x="770" y="-140" />
            </Array>
          </mxGeometry>
        </mxCell>
        <mxCell id="jqrT2KOwgC5lnNY_3PT0-130" value="Prerequisite" style="shape=rhombus;perimeter=rhombusPerimeter;whiteSpace=wrap;html=1;align=center;" parent="1" vertex="1">
          <mxGeometry x="790" y="-170" width="120" height="60" as="geometry" />
        </mxCell>
        <mxCell id="cAhNPsWoJ3iRB7GT_abN-1" value="assignmentPercentage" style="ellipse;whiteSpace=wrap;html=1;align=center;rotation=45;" parent="1" vertex="1">
          <mxGeometry x="1304.14" y="84.14" width="140" height="40" as="geometry" />
        </mxCell>
        <mxCell id="cAhNPsWoJ3iRB7GT_abN-2" style="rounded=0;orthogonalLoop=1;jettySize=auto;html=1;entryX=0.64;entryY=0.986;entryDx=0;entryDy=0;entryPerimeter=0;endArrow=none;endFill=0;" parent="1" source="cAhNPsWoJ3iRB7GT_abN-1" target="jqrT2KOwgC5lnNY_3PT0-41" edge="1">
          <mxGeometry relative="1" as="geometry" />
        </mxCell>
        <mxCell id="cAhNPsWoJ3iRB7GT_abN-3" value="testPercentage" style="ellipse;whiteSpace=wrap;html=1;align=center;rotation=30;" parent="1" vertex="1">
          <mxGeometry x="1420" y="124.14" width="100" height="40" as="geometry" />
        </mxCell>
        <mxCell id="cUoe-X10xUlnaE-VZoVE-1" value="gradePoint" style="ellipse;whiteSpace=wrap;html=1;align=center;rotation=0;" parent="1" vertex="1">
          <mxGeometry x="850" y="-380" width="100" height="40" as="geometry" />
        </mxCell>
        <mxCell id="cUoe-X10xUlnaE-VZoVE-2" style="rounded=0;orthogonalLoop=1;jettySize=auto;html=1;entryX=0.808;entryY=0.333;entryDx=0;entryDy=0;entryPerimeter=0;endArrow=none;endFill=0;" parent="1" source="cUoe-X10xUlnaE-VZoVE-1" target="jqrT2KOwgC5lnNY_3PT0-107" edge="1">
          <mxGeometry relative="1" as="geometry" />
        </mxCell>
        <mxCell id="cUoe-X10xUlnaE-VZoVE-4" style="rounded=0;orthogonalLoop=1;jettySize=auto;html=1;endArrow=none;endFill=0;" parent="1" source="cUoe-X10xUlnaE-VZoVE-3" target="jqrT2KOwgC5lnNY_3PT0-100" edge="1">
          <mxGeometry relative="1" as="geometry" />
        </mxCell>
        <mxCell id="cUoe-X10xUlnaE-VZoVE-3" value="gradePoint" style="ellipse;whiteSpace=wrap;html=1;align=center;rotation=0;" parent="1" vertex="1">
          <mxGeometry x="1300" y="-500" width="100" height="40" as="geometry" />
        </mxCell>
        <mxCell id="cUoe-X10xUlnaE-VZoVE-5" value="minPoint" style="ellipse;whiteSpace=wrap;html=1;align=center;rotation=0;" parent="1" vertex="1">
          <mxGeometry x="1220" y="-870" width="100" height="50" as="geometry" />
        </mxCell>
        <mxCell id="cUoe-X10xUlnaE-VZoVE-6" style="rounded=0;orthogonalLoop=1;jettySize=auto;html=1;entryX=0.2;entryY=0.06;entryDx=0;entryDy=0;entryPerimeter=0;endArrow=none;endFill=0;" parent="1" source="cUoe-X10xUlnaE-VZoVE-5" target="jqrT2KOwgC5lnNY_3PT0-88" edge="1">
          <mxGeometry relative="1" as="geometry" />
        </mxCell>
        <mxCell id="cUoe-X10xUlnaE-VZoVE-7" value="student_grade_histroy" style="shape=rhombus;perimeter=rhombusPerimeter;whiteSpace=wrap;html=1;align=center;" parent="1" vertex="1">
          <mxGeometry x="1000" y="-435" width="150" height="60" as="geometry" />
        </mxCell>
        <mxCell id="cUoe-X10xUlnaE-VZoVE-9" value="" style="edgeStyle=orthogonalEdgeStyle;rounded=0;orthogonalLoop=1;jettySize=auto;html=1;entryX=0.6;entryY=0.043;entryDx=0;entryDy=0;entryPerimeter=0;endArrow=ERoneToMany;endFill=0;" parent="1" source="cUoe-X10xUlnaE-VZoVE-7" target="jqrT2KOwgC5lnNY_3PT0-41" edge="1">
          <mxGeometry relative="1" as="geometry">
            <Array as="points">
              <mxPoint x="1075" y="-370" />
              <mxPoint x="1300" y="-370" />
              <mxPoint x="1300" y="-130" />
              <mxPoint x="1310" y="-130" />
            </Array>
          </mxGeometry>
        </mxCell>
        <mxCell id="cUoe-X10xUlnaE-VZoVE-14" style="rounded=0;orthogonalLoop=1;jettySize=auto;html=1;entryX=1;entryY=0;entryDx=0;entryDy=0;endArrow=none;endFill=0;" parent="1" source="cUoe-X10xUlnaE-VZoVE-11" target="cUoe-X10xUlnaE-VZoVE-7" edge="1">
          <mxGeometry relative="1" as="geometry" />
        </mxCell>
        <mxCell id="cUoe-X10xUlnaE-VZoVE-11" value="gradeScore" style="ellipse;whiteSpace=wrap;html=1;align=center;rotation=0;" parent="1" vertex="1">
          <mxGeometry x="1080" y="-500" width="100" height="40" as="geometry" />
        </mxCell>
        <mxCell id="cUoe-X10xUlnaE-VZoVE-15" value="instructorPassword&lt;br&gt;" style="ellipse;whiteSpace=wrap;html=1;align=center;rotation=0;" parent="1" vertex="1">
          <mxGeometry x="-80" y="10" width="110" height="40" as="geometry" />
        </mxCell>
        <mxCell id="cUoe-X10xUlnaE-VZoVE-16" style="rounded=0;orthogonalLoop=1;jettySize=auto;html=1;entryX=0.107;entryY=1.014;entryDx=0;entryDy=0;entryPerimeter=0;endArrow=none;endFill=0;" parent="1" source="cUoe-X10xUlnaE-VZoVE-15" target="qT0dpiHwQ6VjPCAu0W2Q-95" edge="1">
          <mxGeometry relative="1" as="geometry" />
        </mxCell>
      </root>
    </mxGraphModel>
  </diagram>
</mxfile>
